<svg xmlns="http://www.w3.org/2000/svg" viewBox="0 0 24 24"><path fill="#e9460f" d="M7.349 7.156a24.5 24.5 0 0 0-2.888 3.21 9.78 9.78 0 0 0-2.001 8.205 7.81 7.81 0 0 0 6.018 5.43h.016l-.01-.009a4.59 4.59 0 0 1-2.724-3.824 5.4 5.4 0 0 1 2.451-4.246c-.238.58-.18 1.24.15 1.77a1.63 1.63 0 0 0 1.656.646 1.698 1.698 0 0 0 .661-2.91 3.76 3.76 0 0 1-1.351-3.436 3.5 3.5 0 0 1 1.097-1.785c-.405 1.08.737 2.146 1.505 2.67a40 40 0 0 1 3.926 2.686 5.28 5.28 0 0 1 2.001 4.5 4.99 4.99 0 0 1-3.386 3.93c3.552-.79 7.213-3.61 7.283-7.61a8.29 8.29 0 0 0-4.902-7.38h-.13c.065.157.096.326.09.496-.002.02.002.04 0 .06a1.7 1.7 0 0 1-2.977.658c-1.171-1.5 0-3.207.196-4.857A6.17 6.17 0 0 0 11.475 0c.856 1.427-.284 3.3-1.114 4.366-.832 1.066-2.034 1.86-3.012 2.79"/></svg>